<?xml version="1.0" encoding="UTF-8" standalone="no"?>
<!-- Created with Inkscape (http://www.inkscape.org/) -->

<svg
   width="119.21804mm"
   height="128.19197mm"
   viewBox="0 0 119.21804 128.19197"
   version="1.1"
   id="svg1"
   xml:space="preserve"
   xmlns:xlink="http://www.w3.org/1999/xlink"
   xmlns="http://www.w3.org/2000/svg"
   xmlns:svg="http://www.w3.org/2000/svg"><defs
     id="defs1"><linearGradient
       id="linearGradient125"><stop
         style="stop-color:#2a80ff;stop-opacity:1;"
         offset="0"
         id="stop125" /><stop
         style="stop-color:#24689c;stop-opacity:0;"
         offset="1"
         id="stop126" /></linearGradient><linearGradient
       id="linearGradient123"><stop
         style="stop-color:#2b7fff;stop-opacity:1;"
         offset="0"
         id="stop123" /><stop
         style="stop-color:#216694;stop-opacity:0;"
         offset="1"
         id="stop124" /></linearGradient><linearGradient
       id="linearGradient121"><stop
         style="stop-color:#2b7fff;stop-opacity:1;"
         offset="0"
         id="stop121" /><stop
         style="stop-color:#1b567c;stop-opacity:0;"
         offset="1"
         id="stop122" /></linearGradient><linearGradient
       id="linearGradient116"><stop
         style="stop-color:#2b7fff;stop-opacity:1;"
         offset="0"
         id="stop116" /><stop
         style="stop-color:#12405a;stop-opacity:1;"
         offset="1"
         id="stop117" /></linearGradient><linearGradient
       xlink:href="#linearGradient116"
       id="linearGradient117"
       x1="-397.88257"
       y1="364.01553"
       x2="-399.27234"
       y2="476.50864"
       gradientUnits="userSpaceOnUse" /><linearGradient
       xlink:href="#linearGradient121"
       id="linearGradient122"
       x1="-229.84601"
       y1="427.32645"
       x2="-241.23927"
       y2="497.23962"
       gradientUnits="userSpaceOnUse" /><linearGradient
       xlink:href="#linearGradient123"
       id="linearGradient124"
       x1="-173.93825"
       y1="424.70895"
       x2="-192.57829"
       y2="506.55222"
       gradientUnits="userSpaceOnUse" /><linearGradient
       xlink:href="#linearGradient125"
       id="linearGradient126"
       x1="-248.24934"
       y1="208.49271"
       x2="-196.08821"
       y2="170.47978"
       gradientUnits="userSpaceOnUse" /></defs><g
     id="layer1"
     transform="translate(910.31334,-476.50633)"><g
       id="g2"
       transform="translate(0.43026315)"><path
         id="path48"
         style="fill:url(#linearGradient117);fill-opacity:1;stroke-width:0.523999;stroke-linecap:square;stroke-dasharray:none"
         d="m -414.43213,363.43512 -29.00172,16.74431 a 30.607263,30.607263 119.99988 0 0 -15.30352,26.5066 v 33.4889 a 30.607263,30.607263 60.000121 0 0 15.30352,26.50661 l 29.00172,16.74431 a 30.606947,30.606947 1.0821459e-4 0 0 30.60707,6e-5 l 29.00218,-16.74443 a 30.607129,30.607129 119.99999 0 0 15.30355,-26.50655 v -33.4889 a 30.607129,30.607129 60.000013 0 0 -15.30355,-26.50654 l -29.00218,-16.74443 a 30.606947,30.606947 179.99989 0 0 -30.60707,6e-5 z"
         transform="translate(-452.00623,117.17183)" /><g
         id="g63"
         transform="matrix(0.89827602,0,0,0.89837374,-662.19747,130.71702)"
         style="stroke-width:1.11318;stroke-dasharray:none"><path
           id="path51"
           style="opacity:1;fill:url(#linearGradient126);fill-opacity:1;stroke:none;stroke-width:1.88499;stroke-dasharray:none;stroke-opacity:1"
           d="m -209.01068,164.04432 30.17308,17.42048 c 5.22959,3.01931 5.22959,7.91458 0,10.93389 l -30.17308,17.42048 c -5.22959,3.01932 -13.70843,3.01932 -18.93802,0 l -30.17307,-17.42048 c -5.22959,-3.01931 -5.22959,-7.91458 0,-10.93389 l 30.17307,-17.42047 c 5.22959,-3.01932 13.70843,-3.01932 18.93802,-1e-5 z"
           transform="matrix(1.1811027,0,0,1.1811027,47.71386,198.18881)" /><g
           id="g62"
           transform="matrix(-1.5571557,0,0,1.5571557,-561.19935,292.53167)"
           style="stroke-width:0.714883;stroke-dasharray:none"><g
             id="g61"
             transform="matrix(0.47815835,0,0,0.47815835,-141.39387,45.870542)"
             style="stroke-width:1.49507;stroke-dasharray:none"><path
               id="path52"
               style="opacity:1;fill:#fb2c36;fill-opacity:1;stroke:#000000;stroke-width:0.747537;stroke-dasharray:none"
               d="m -144.83576,56.167316 c 16.95206,9.787297 16.95206,25.655658 1e-5,35.442957 -16.95208,9.787317 -44.4368,9.787327 -61.38889,1.4e-5 -16.95208,-9.787312 -16.95207,-25.655675 1e-5,-35.442986 16.95208,-9.78731 44.43679,-9.787295 61.38887,1.5e-5 z" /><g
               id="g60"
               style="fill:none;stroke-width:0.74317;stroke-dasharray:none"
               transform="matrix(1.0061785,0,0,1.0055755,-13.320432,-63.473312)"><path
                 style="fill:none;stroke:#000000;stroke-width:0.74317;stroke-linecap:butt;stroke-linejoin:miter;stroke-dasharray:none;stroke-opacity:1"
                 d="m -206.53074,111.8349 c 2.39762,2.22232 4.79524,4.44465 7.10061,8.32479 2.30542,3.88014 4.51861,9.41813 6.16687,14.76176 1.64823,5.34364 2.73156,10.49293 3.0046,14.75189 0.27307,4.25897 -0.26416,7.62758 -0.80136,10.9962"
                 id="path53"
                 transform="translate(38.89375,0.26458333)" /><path
                 style="fill:none;stroke:#000000;stroke-width:0.74317;stroke-linecap:butt;stroke-linejoin:miter;stroke-dasharray:none;stroke-opacity:1"
                 d="m -243.0598,138.07689 c 1.48395,-2.17665 2.96788,-4.35329 5.80175,-6.58936 2.83384,-2.23609 7.0176,-4.53159 12.99551,-6.8711 5.97786,-2.33951 13.74986,-4.72303 20.95839,-5.67328 7.20852,-0.95027 13.85356,-0.46728 19.13794,0.0362 5.28436,0.50343 9.20806,1.02733 12.66833,1.96595 3.4603,0.9386 6.45722,2.29191 9.45412,3.64522"
                 id="path54"
                 transform="translate(38.89375,0.26458333)" /><path
                 style="fill:none;stroke:#000000;stroke-width:0.750263;stroke-linecap:butt;stroke-linejoin:miter;stroke-dasharray:none;stroke-opacity:1"
                 d="m -163.07902,149.59696 c 1.29853,-3.05543 2.59706,-6.11086 1.44069,-9.16382 -1.15636,-3.05297 -4.76759,-6.1035 -9.10034,-9.14439 -4.33272,-3.04088 -9.38693,-6.07213 -12.69588,-8.36146 -3.30897,-2.28931 -4.87265,-3.83672 -5.65518,-5.2801 -0.78253,-1.44337 -0.7839,-2.78276 -0.10448,-3.5774 0.67941,-0.79463 2.17711,-1.13995 3.53728,-1.38985"
                 id="path59"
                 transform="matrix(0.98498692,0,0,0.99613492,35.933461,0.83137894)" /><path
                 style="fill:none;stroke:#000000;stroke-width:0.74317;stroke-linecap:butt;stroke-linejoin:miter;stroke-dasharray:none;stroke-opacity:1"
                 d="m -221.04465,158.17665 c -1.27246,-1.47131 -2.54493,-2.94263 -3.24946,-4.54437 -0.70454,-1.60174 -0.84116,-3.3339 0.13217,-5.90362 0.97332,-2.56973 3.0566,-5.977 4.69739,-8.69262 1.6408,-2.71561 2.83911,-4.73958 4.30774,-6.8909 1.46863,-2.15132 3.20759,-4.43001 3.78155,-6.7981 0.57399,-2.36806 -0.0171,-4.82554 -1.81234,-6.41952 -1.79533,-1.59398 -4.79496,-2.32447 -7.82057,-2.26129 -3.02563,0.0632 -6.07726,0.92002 -9.12891,1.77686"
                 id="path60"
                 transform="translate(38.89375,0.26458333)" /></g></g></g></g><g
         id="g64"
         transform="matrix(0.89827602,0,0,0.89837374,-656.76715,137.82039)"
         style="stroke:none;stroke-width:1.11318;stroke-dasharray:none"><g
           id="g81"
           style="stroke:none;stroke-width:1.11318;stroke-dasharray:none"><path
             id="path63"
             style="fill:url(#linearGradient124);stroke:none;stroke-width:2.22637;stroke-dasharray:none;stroke-opacity:1"
             d="m -200.42148,442.92303 32.66025,-18.85645 c 7.02056,-4.05334 12.67248,-1.16629 12.67248,6.4733 v 39.3993 c 0,7.63956 -5.65192,17.05292 -12.67248,21.10626 l -32.66025,18.85645 c -7.02056,4.05333 -12.67252,1.16628 -12.67252,-6.47328 v -39.3993 c 0,-7.63959 5.65196,-17.05295 12.67252,-21.10628 z" /><path
             style="font-size:28.4027px;line-height:1.25;font-family:'Berlin Sans FB';-inkscape-font-specification:'Berlin Sans FB';letter-spacing:0px;word-spacing:0px;fill:#f0b100;fill-opacity:1;stroke:none;stroke-width:0.556592;stroke-dasharray:none"
             d="m -161.23738,441.66783 c 0,3.49779 -1.76349,7.61572 -5.29052,12.35376 -0.45114,0.57394 -3.81417,4.4938 -10.08908,11.75912 -3.77306,4.32532 -5.82368,7.61996 -6.15178,9.88395 -0.0819,0.57799 -0.16404,1.15612 -0.24604,1.73409 -0.16404,0.50481 -0.75871,1.16175 -1.78405,1.97084 -1.18932,0.92802 -2.11209,1.58129 -2.76829,1.96015 -2.09163,1.2076 -3.32199,1.88134 -3.69111,2.0225 -0.98428,0.35114 -1.47642,0.0564 -1.47642,-0.88443 0,-2.8947 0.84075,-5.68381 2.52223,-8.36735 2.70685,-3.63728 5.39312,-7.27485 8.05893,-10.91263 0.9659,-1.31517 1.78593,-2.5362 2.46021,-3.66321 1.55881,-2.60547 2.33821,-4.70802 2.33821,-6.30774 0,-2.24342 -1.10732,-3.41333 -3.32203,-3.50963 -2.17364,-0.12003 -5.14703,0.90914 -8.92016,3.08756 -3.0349,1.75221 -6.4184,4.33293 -10.15048,7.74203 -3.6911,3.38543 -5.45463,5.03078 -5.29054,4.93604 -1.27143,0.73407 -1.90714,-1.21465 -1.90714,-5.84617 0,-0.33769 0.61518,-1.11508 1.84561,-2.33204 6.43891,-6.34689 13.20591,-11.56853 20.30098,-15.66488 6.93109,-4.00168 12.59076,-6.01491 16.97904,-6.03976 4.38833,-0.0248 6.5825,2.00108 6.5825,6.07781 z m -17.53266,42.9413 c 0,1.35088 -0.75871,2.97092 -2.2762,4.86021 -1.51742,1.8892 -3.40398,3.485 -5.65966,4.78733 -2.21467,1.27864 -4.08074,1.84942 -5.59821,1.71242 -1.47639,-0.16077 -2.21466,-0.91653 -2.21466,-2.26741 0,-1.35085 0.73827,-2.93495 2.21466,-4.75224 1.47647,-1.84147 3.34252,-3.41339 5.59821,-4.71572 2.2967,-1.326 4.18324,-1.92065 5.65966,-1.78403 1.51749,0.0888 2.2762,0.80859 2.2762,2.15944 z"
             id="path64"
             aria-label="?" /></g></g><g
         id="g71"
         transform="matrix(0.89827602,0,0,0.89837374,-667.87745,141.49845)"
         style="stroke-width:1.11318"><path
           id="path65"
           style="opacity:1;fill:url(#linearGradient122);stroke:none;stroke-width:2.22637;stroke-dasharray:none;stroke-opacity:1"
           d="m -218.47812,439.68835 -35.63752,-20.57538 c -6.17667,-3.56611 -11.18385,-0.6752 -11.18385,6.45702 v 41.15075 c -1e-5,7.13223 5.00717,15.80497 11.18385,19.37109 l 35.63752,20.57538 c 6.17668,3.56613 11.18388,0.67521 11.18387,-6.45704 v -41.15075 c 0,-7.13224 -5.0072,-15.80496 -11.18387,-19.37107 z" /><g
           id="g70"
           transform="matrix(1.3070022,0,0,1.3066552,73.207232,-141.66567)"
           style="fill:#00bba7;fill-opacity:1;stroke:none;stroke-width:0.85182"><path
             id="path66"
             style="fill:#00bba7;fill-opacity:1;stroke:none;stroke-width:0.42591;stroke-dasharray:none"
             d="m -231.20797,465.8643 c -3e-5,3.78984 -2.50569,5.41507 -5.59661,3.63005 -3.09091,-1.78501 -5.59657,-6.30432 -5.5966,-10.09418 -2e-5,-3.7899 2.50567,-5.41518 5.5966,-3.63014 3.09094,1.78503 5.59663,6.3044 5.59661,10.09427 z" /><path
             id="path67"
             style="fill:#00bba7;fill-opacity:1;stroke:none;stroke-width:0.42591;stroke-dasharray:none"
             d="m -243.09724,444.47008 c 0,3.78987 -2.50568,5.41511 -5.5966,3.63009 -3.09092,-1.78502 -5.5966,-6.30435 -5.5966,-10.09422 0,-3.78986 2.50568,-5.4151 5.5966,-3.63008 3.09092,1.78502 5.5966,6.30435 5.5966,10.09421 z" /><path
             id="path68"
             style="fill:#00bba7;fill-opacity:1;stroke:none;stroke-width:0.42591;stroke-dasharray:none"
             d="m -219.31871,458.20231 c 0,3.78987 -2.5057,5.41511 -5.59662,3.63007 -3.09091,-1.78503 -5.59658,-6.30435 -5.59658,-10.09421 0,-3.78985 2.50567,-5.41509 5.59658,-3.63009 3.09092,1.785 5.59662,6.30435 5.59662,10.09423 z" /><path
             id="path69"
             style="fill:#00bba7;fill-opacity:1;stroke:none;stroke-width:0.42591;stroke-dasharray:none"
             d="m -243.09724,473.61036 c 1e-5,3.78988 -2.50568,5.41514 -5.5966,3.63011 -3.09092,-1.78502 -5.59661,-6.30437 -5.5966,-10.09424 0,-3.78986 2.50568,-5.41511 5.5966,-3.63009 3.09092,1.78502 5.5966,6.30435 5.5966,10.09422 z" /><path
             id="path70"
             style="fill:#00bba7;fill-opacity:1;stroke:none;stroke-width:0.42591;stroke-dasharray:none"
             d="m -219.31871,487.34258 c 1e-5,3.78989 -2.50569,5.41515 -5.59662,3.6301 -3.09092,-1.78503 -5.59659,-6.30437 -5.59658,-10.09423 0,-3.78985 2.50567,-5.4151 5.59658,-3.6301 3.09092,1.78501 5.59662,6.30436 5.59662,10.09423 z" /></g></g></g></g></svg>
