<svg width="66" height="66" viewBox="0 0 66 66" fill="none" xmlns="http://www.w3.org/2000/svg">
<circle cx="33" cy="33" r="33" fill="#F0B100"/>
<path d="M18.375 43.5V39.65C18.375 38.8708 18.5757 38.1549 18.9772 37.5023C19.3787 36.8496 19.9113 36.3509 20.575 36.0063C21.9958 35.2958 23.4396 34.7633 24.9062 34.4085C26.3729 34.0538 27.8625 33.8759 29.375 33.875C30.8875 33.8741 32.3771 34.0519 33.8438 34.4085C35.3104 34.7651 36.7542 35.2977 38.175 36.0063C38.8396 36.35 39.3726 36.8487 39.7741 37.5023C40.1756 38.1558 40.3759 38.8718 40.375 39.65V43.5H18.375ZM43.125 43.5V39.375C43.125 38.3667 42.8445 37.3982 42.2835 36.4696C41.7225 35.541 40.9259 34.7449 39.8937 34.0813C41.0625 34.2188 42.1625 34.4539 43.1937 34.7866C44.225 35.1194 45.1875 35.5259 46.0812 36.0063C46.9062 36.4646 47.5365 36.9743 47.9719 37.5353C48.4073 38.0963 48.625 38.7095 48.625 39.375V43.5H43.125ZM29.375 32.5C27.8625 32.5 26.5677 31.9615 25.4906 30.8844C24.4135 29.8073 23.875 28.5125 23.875 27C23.875 25.4875 24.4135 24.1927 25.4906 23.1156C26.5677 22.0385 27.8625 21.5 29.375 21.5C30.8875 21.5 32.1823 22.0385 33.2594 23.1156C34.3365 24.1927 34.875 25.4875 34.875 27C34.875 28.5125 34.3365 29.8073 33.2594 30.8844C32.1823 31.9615 30.8875 32.5 29.375 32.5ZM43.125 27C43.125 28.5125 42.5865 29.8073 41.5094 30.8844C40.4323 31.9615 39.1375 32.5 37.625 32.5C37.3729 32.5 37.0521 32.4716 36.6625 32.4148C36.2729 32.3579 35.9521 32.2947 35.7 32.225C36.3188 31.4917 36.7945 30.6781 37.1272 29.7844C37.46 28.8906 37.6259 27.9625 37.625 27C37.6241 26.0375 37.4582 25.1094 37.1272 24.2156C36.7963 23.3219 36.3206 22.5083 35.7 21.775C36.0208 21.6604 36.3417 21.5857 36.6625 21.5509C36.9833 21.516 37.3042 21.4991 37.625 21.5C39.1375 21.5 40.4323 22.0385 41.5094 23.1156C42.5865 24.1927 43.125 25.4875 43.125 27Z" fill="#FEFCE8"/>
</svg>
