<?xml version="1.0" encoding="UTF-8" standalone="no"?>
<!-- Created with Inkscape (http://www.inkscape.org/) -->

<svg
   width="102.2945mm"
   height="18.911888mm"
   viewBox="0 0 102.2945 18.911888"
   version="1.1"
   id="svg1"
   xml:space="preserve"
   xmlns="http://www.w3.org/2000/svg"
   xmlns:svg="http://www.w3.org/2000/svg"><defs
     id="defs1" /><g
     id="g1"
     transform="translate(1193.9314,-557.10353)"><text
       xml:space="preserve"
       style="font-style:normal;font-variant:normal;font-weight:normal;font-stretch:normal;font-size:22.5717px;line-height:0.8;font-family:'Berlin Sans FB';-inkscape-font-specification:'Berlin Sans FB';text-align:center;text-anchor:middle;fill:#37000a;fill-opacity:1;stroke-width:0.400001;stroke-linecap:square"
       x="-1072.8109"
       y="634.04773"
       id="text36-1-2"
       transform="scale(0.99051041,1.0095805)"><tspan
         id="tspan36-2-1"
         style="fill:#fdfefe;fill-opacity:1;stroke-width:0.400001"
         x="-1072.8109"
         y="634.04773">Matchpoint</tspan></text><circle
       style="fill:#00bba7;fill-opacity:1;stroke-width:0.499999;stroke-linecap:square"
       id="path1"
       cx="-1065.8217"
       cy="575.5022"
       r="2.771477" /><g
       id="g11"
       transform="translate(2.6133606,-27.794408)"><path
         style="font-weight:bold;font-size:19.7556px;line-height:0.8;font-family:Nunito;-inkscape-font-specification:'Nunito Bold';text-align:center;text-anchor:middle;fill:#ffffff;stroke-width:0.5;stroke-linecap:square"
         d="m -1096.2456,600.29331 q -1.2841,0 -2.1534,-0.43462 -0.8495,-0.43463 -1.2644,-1.26436 -0.4148,-0.84949 -0.4148,-2.0941 v -4.20794 h -1.0273 q -0.4741,0 -0.731,-0.23707 -0.2568,-0.25682 -0.2568,-0.69144 0,-0.45438 0.2568,-0.69145 0.2569,-0.23706 0.731,-0.23706 h 1.0273 v -1.79776 q 0,-0.61243 0.3161,-0.92852 0.3358,-0.31609 0.9285,-0.31609 0.5926,0 0.9087,0.31609 0.3161,0.31609 0.3161,0.92852 v 1.79776 h 2.0941 q 0.4742,0 0.731,0.23706 0.2568,0.23707 0.2568,0.69145 0,0.43462 -0.2568,0.69144 -0.2568,0.23707 -0.731,0.23707 h -2.0941 v 4.06966 q 0,0.94826 0.4149,1.4224 0.4149,0.47413 1.3434,0.47413 0.3358,0 0.5926,-0.0593 0.2569,-0.0593 0.4544,-0.079 0.2371,-0.0197 0.3951,0.15805 0.1581,0.15804 0.1581,0.67169 0,0.39511 -0.1383,0.7112 -0.1185,0.29633 -0.4544,0.41487 -0.2568,0.079 -0.6717,0.13829 -0.4148,0.079 -0.7309,0.079 z"
         id="path11" /><path
         style="font-weight:bold;font-size:19.7556px;line-height:0.8;font-family:Nunito;-inkscape-font-specification:'Nunito Bold';text-align:center;text-anchor:middle;fill:#ffffff;stroke-width:0.5;stroke-linecap:square"
         d="m -1111.0031,600.25381 q -0.5926,0 -0.9087,-0.31609 -0.3161,-0.33585 -0.3161,-0.94827 v -7.46762 q 0,-0.61242 0.3161,-0.92851 0.3161,-0.31609 0.889,-0.31609 0.5729,0 0.889,0.31609 0.3161,0.31609 0.3161,0.92851 v 1.34338 l -0.2173,-0.49389 q 0.4346,-1.04704 1.3433,-1.58044 0.9286,-0.55316 2.0941,-0.55316 1.1656,0 1.9163,0.43462 0.7507,0.43463 1.1261,1.32363 0.3754,0.86924 0.3754,2.21263 v 4.78085 q 0,0.61242 -0.3161,0.94827 -0.3161,0.31609 -0.9088,0.31609 -0.5927,0 -0.9285,-0.31609 -0.3161,-0.33585 -0.3161,-0.94827 v -4.66232 q 0,-1.12607 -0.4346,-1.63972 -0.4149,-0.51364 -1.3039,-0.51364 -1.0865,0 -1.7385,0.69144 -0.6322,0.67169 -0.6322,1.79776 v 4.32648 q 0,1.26436 -1.2446,1.26436 z"
         id="path10" /><path
         style="font-weight:bold;font-size:19.7556px;line-height:0.8;font-family:Nunito;-inkscape-font-specification:'Nunito Bold';text-align:center;text-anchor:middle;fill:#00bba7;fill-opacity:1;stroke-width:0.499999;stroke-linecap:square"
         d="m -1116.0307,588.82947 q -1.0426,0 -1.6384,-0.50634 -0.5657,-0.53611 -0.5657,-1.45943 0,-0.9531 0.5657,-1.45944 0.5956,-0.50633 1.6384,-0.50633 1.0721,0 1.6378,0.50633 0.566,0.50634 0.566,1.45944 0,0.92332 -0.566,1.45943 -0.5657,0.50634 -1.6378,0.50634 z"
         id="path9" /><path
         style="font-weight:bold;font-size:19.7556px;line-height:0.8;font-family:Nunito;-inkscape-font-specification:'Nunito Bold';text-align:center;text-anchor:middle;fill:#ffffff;stroke-width:0.5;stroke-linecap:square"
         d="m -1116.0407,600.23405 q -0.5927,0 -0.9088,-0.3556 -0.3161,-0.3556 -0.3161,-0.98778 v -7.2503 q 0,-0.65194 0.3161,-0.98778 0.3161,-0.3556 0.9088,-0.3556 0.5927,0 0.9087,0.3556 0.3359,0.33584 0.3359,0.98778 v 7.2503 q 0,0.63218 -0.3161,0.98778 -0.3161,0.3556 -0.9285,0.3556 z"
         id="path8" /><path
         style="font-weight:bold;font-size:19.7556px;line-height:0.8;font-family:Nunito;-inkscape-font-specification:'Nunito Bold';text-align:center;text-anchor:middle;fill:#ffffff;stroke-width:0.5;stroke-linecap:square"
         d="m -1124.2393,600.29332 q -1.5014,0 -2.6077,-0.61242 -1.1063,-0.61243 -1.7188,-1.7385 -0.6124,-1.14582 -0.6124,-2.68676 0,-1.16558 0.3359,-2.07434 0.3556,-0.92851 1.0075,-1.58044 0.6519,-0.67169 1.5607,-1.00754 0.9087,-0.3556 2.0348,-0.3556 1.5014,0 2.6077,0.61242 1.1064,0.61243 1.7188,1.7385 0.6124,1.12607 0.6124,2.667 0,1.16558 -0.3556,2.0941 -0.3358,0.92851 -0.9878,1.6002 -0.6519,0.65193 -1.5607,1.00753 -0.9087,0.33585 -2.0348,0.33585 z m 0,-1.87678 q 0.731,0 1.2841,-0.3556 0.5532,-0.3556 0.8495,-1.04705 0.3161,-0.7112 0.3161,-1.75825 0,-1.58045 -0.6717,-2.35091 -0.6717,-0.79023 -1.778,-0.79023 -0.7309,0 -1.2841,0.3556 -0.5532,0.33585 -0.8693,1.04705 -0.2963,0.69145 -0.2963,1.73849 0,1.56069 0.6717,2.37067 0.6717,0.79023 1.778,0.79023 z"
         id="path7" /><path
         style="font-weight:bold;font-size:19.7556px;line-height:0.8;font-family:Nunito;-inkscape-font-specification:'Nunito Bold';text-align:center;text-anchor:middle;fill:#ffffff;stroke-width:0.5;stroke-linecap:square"
         d="m -1139.2733,603.80982 q -0.5927,0 -0.9088,-0.31609 -0.3161,-0.31609 -0.3161,-0.92852 v -11.04338 q 0,-0.61242 0.3161,-0.92851 0.3161,-0.31609 0.889,-0.31609 0.5927,0 0.9088,0.31609 0.3161,0.31609 0.3161,0.92851 v 1.54094 l -0.2173,-0.59267 q 0.2963,-1.00753 1.2051,-1.61996 0.9285,-0.61242 2.1533,-0.61242 1.2644,0 2.2126,0.61242 0.9681,0.61243 1.5015,1.7385 0.5334,1.10631 0.5334,2.667 0,1.54094 -0.5334,2.68676 -0.5334,1.12607 -1.4817,1.7385 -0.9483,0.61242 -2.2324,0.61242 -1.2051,0 -2.1138,-0.59267 -0.9088,-0.61242 -1.2249,-1.58045 h 0.2371 v 4.44501 q 0,0.61243 -0.3359,0.92852 -0.316,0.31609 -0.9087,0.31609 z m 3.6548,-5.39328 q 0.7309,0 1.2841,-0.3556 0.5531,-0.3556 0.8495,-1.04705 0.3161,-0.7112 0.3161,-1.75825 0,-1.58045 -0.6717,-2.35091 -0.6717,-0.79023 -1.778,-0.79023 -0.731,0 -1.2841,0.3556 -0.5532,0.33585 -0.8693,1.04705 -0.2963,0.69145 -0.2963,1.73849 0,1.56069 0.6717,2.37067 0.6717,0.79023 1.778,0.79023 z"
         id="path6" /><path
         style="font-weight:bold;font-size:19.7556px;line-height:0.8;font-family:Nunito;-inkscape-font-specification:'Nunito Bold';text-align:center;text-anchor:middle;fill:#ffffff;stroke-width:0.5;stroke-linecap:square"
         d="m -1150.8303,600.25381 q -0.5927,0 -0.9088,-0.31609 -0.3161,-0.33585 -0.3161,-0.94827 v -11.73483 q 0,-0.61242 0.3161,-0.92851 0.3161,-0.31609 0.9088,-0.31609 0.5926,0 0.9087,0.31609 0.3359,0.31609 0.3359,0.92851 v 5.1167 h -0.2766 q 0.4346,-1.04704 1.3434,-1.58044 0.9285,-0.55316 2.0941,-0.55316 1.1656,0 1.9163,0.43462 0.7507,0.43463 1.126,1.32363 0.3754,0.86924 0.3754,2.21263 v 4.78085 q 0,0.61242 -0.3161,0.94827 -0.3161,0.31609 -0.9087,0.31609 -0.5927,0 -0.9286,-0.31609 -0.3161,-0.33585 -0.3161,-0.94827 v -4.66232 q 0,-1.12607 -0.4346,-1.63972 -0.4148,-0.51364 -1.3038,-0.51364 -1.0866,0 -1.7385,0.69144 -0.6322,0.67169 -0.6322,1.79776 v 4.32648 q 0,1.26436 -1.2446,1.26436 z"
         id="path5" /><path
         style="font-weight:bold;font-size:19.7556px;line-height:0.8;font-family:Nunito;-inkscape-font-specification:'Nunito Bold';text-align:center;text-anchor:middle;fill:#ffffff;stroke-width:0.5;stroke-linecap:square"
         d="m -1156.915,600.29331 q -1.5212,0 -2.6473,-0.61242 -1.1261,-0.63218 -1.7385,-1.77801 -0.6124,-1.14582 -0.6124,-2.68676 0,-1.16558 0.3358,-2.07434 0.3556,-0.92851 1.0076,-1.56069 0.6519,-0.65193 1.5804,-0.98778 0.9285,-0.3556 2.0744,-0.3556 0.6519,0 1.4026,0.1778 0.7705,0.1778 1.4422,0.59267 0.316,0.19755 0.4148,0.47413 0.099,0.27658 0.04,0.57291 -0.059,0.27658 -0.2568,0.49389 -0.1778,0.19756 -0.4544,0.25683 -0.2765,0.0395 -0.6124,-0.13829 -0.4346,-0.25682 -0.889,-0.37536 -0.4544,-0.13829 -0.8692,-0.13829 -0.652,0 -1.1459,0.21731 -0.4939,0.19756 -0.8495,0.59267 -0.3358,0.37536 -0.5136,0.94827 -0.1778,0.57291 -0.1778,1.32363 0,1.46191 0.6914,2.3114 0.7113,0.82974 1.9954,0.82974 0.4148,0 0.8495,-0.11854 0.4543,-0.11853 0.9087,-0.37535 0.3359,-0.1778 0.5927,-0.11854 0.2766,0.0593 0.4544,0.27658 0.1778,0.19756 0.2173,0.49389 0.039,0.27658 -0.079,0.55316 -0.099,0.27658 -0.3951,0.45438 -0.6519,0.39511 -1.3829,0.57291 -0.7309,0.1778 -1.3828,0.1778 z"
         id="path4" /><path
         style="font-weight:bold;font-size:19.7556px;line-height:0.8;font-family:Nunito;-inkscape-font-specification:'Nunito Bold';text-align:center;text-anchor:middle;fill:#ffffff;stroke-width:0.5;stroke-linecap:square"
         d="m -1164.442,600.29331 q -1.2841,0 -2.1533,-0.43462 -0.8495,-0.43463 -1.2644,-1.26436 -0.4148,-0.84949 -0.4148,-2.0941 v -4.20794 h -1.0273 q -0.4742,0 -0.731,-0.23707 -0.2568,-0.25682 -0.2568,-0.69144 0,-0.45438 0.2568,-0.69145 0.2568,-0.23706 0.731,-0.23706 h 1.0273 v -1.79776 q 0,-0.61243 0.316,-0.92852 0.3359,-0.31609 0.9286,-0.31609 0.5926,0 0.9087,0.31609 0.3161,0.31609 0.3161,0.92852 v 1.79776 h 2.0941 q 0.4741,0 0.731,0.23706 0.2568,0.23707 0.2568,0.69145 0,0.43462 -0.2568,0.69144 -0.2569,0.23707 -0.731,0.23707 h -2.0941 v 4.06966 q 0,0.94826 0.4149,1.4224 0.4148,0.47413 1.3433,0.47413 0.3359,0 0.5927,-0.0593 0.2568,-0.0593 0.4544,-0.079 0.2371,-0.0197 0.3951,0.15805 0.1581,0.15804 0.1581,0.67169 0,0.39511 -0.1383,0.7112 -0.1186,0.29633 -0.4544,0.41487 -0.2568,0.079 -0.6717,0.13829 -0.4149,0.079 -0.731,0.079 z"
         id="path3" /><path
         style="font-weight:bold;font-size:19.7556px;line-height:0.8;font-family:Nunito;-inkscape-font-specification:'Nunito Bold';text-align:center;text-anchor:middle;fill:#ffffff;stroke-width:0.5;stroke-linecap:square"
         d="m -1176.4929,600.29331 q -1.047,0 -1.8768,-0.39511 -0.81,-0.41487 -1.2841,-1.10632 -0.4544,-0.69144 -0.4544,-1.56069 0,-1.0668 0.5532,-1.67922 0.5531,-0.63218 1.7977,-0.90876 1.2446,-0.27658 3.3387,-0.27658 h 0.9878 v 1.4224 h -0.968 q -1.2249,0 -1.9558,0.11854 -0.731,0.11853 -1.0471,0.41486 -0.2963,0.27658 -0.2963,0.79023 0,0.65193 0.4544,1.0668 0.4544,0.41487 1.2643,0.41487 0.652,0 1.1459,-0.29634 0.5136,-0.31609 0.81,-0.84949 0.2963,-0.5334 0.2963,-1.22484 v -2.2719 q 0,-0.98778 -0.4346,-1.4224 -0.4347,-0.43462 -1.462,-0.43462 -0.5729,0 -1.2446,0.13829 -0.6519,0.13828 -1.3828,0.47413 -0.3754,0.1778 -0.6717,0.0988 -0.2766,-0.079 -0.4347,-0.31609 -0.158,-0.25682 -0.158,-0.55316 0,-0.29633 0.158,-0.57291 0.1581,-0.29634 0.5334,-0.43462 0.9088,-0.37536 1.7385,-0.53341 0.8495,-0.15804 1.541,-0.15804 1.4224,0 2.3311,0.43462 0.9285,0.43463 1.3829,1.32363 0.4544,0.86924 0.4544,2.25214 v 4.74134 q 0,0.61242 -0.2963,0.94827 -0.2964,0.31609 -0.8495,0.31609 -0.5532,0 -0.8693,-0.31609 -0.2963,-0.33585 -0.2963,-0.94827 v -0.94827 h 0.158 q -0.1382,0.69145 -0.5531,1.20509 -0.3951,0.49389 -1.0075,0.77047 -0.6125,0.27658 -1.4027,0.27658 z"
         id="path2" /><path
         style="font-weight:bold;font-size:19.7556px;line-height:0.8;font-family:Nunito;-inkscape-font-specification:'Nunito Bold';text-align:center;text-anchor:middle;fill:#ffffff;stroke-width:0.5;stroke-linecap:square"
         d="m -1195.399,600.25381 q -0.5532,0 -0.8495,-0.31609 -0.2963,-0.31609 -0.2963,-0.86925 v -11.87311 q 0,-0.57292 0.3161,-0.86925 0.316,-0.31609 0.8692,-0.31609 0.4939,0 0.7705,0.19756 0.2963,0.1778 0.5334,0.63218 l 4.8796,9.02831 h -0.6322 l 4.8797,-9.02831 q 0.237,-0.45438 0.5136,-0.63218 0.2766,-0.19756 0.7705,-0.19756 0.5531,0 0.8495,0.31609 0.2963,0.29633 0.2963,0.86925 v 11.87311 q 0,0.55316 -0.2963,0.86925 -0.2766,0.31609 -0.8495,0.31609 -0.5532,0 -0.8495,-0.31609 -0.2963,-0.31609 -0.2963,-0.86925 v -9.14684 h 0.4346 l -4.1487,7.56639 q -0.1976,0.33585 -0.4149,0.49389 -0.2173,0.15805 -0.5926,0.15805 -0.3754,0 -0.6125,-0.15805 -0.237,-0.1778 -0.4148,-0.49389 l -4.1882,-7.58615 h 0.4741 v 9.1666 q 0,0.55316 -0.2963,0.86925 -0.2766,0.31609 -0.8495,0.31609 z"
         id="text1" /></g></g></svg>
