<?xml version="1.0" encoding="UTF-8" standalone="no"?>
<svg
   width="126"
   height="84"
   viewBox="0 0 126 84"
   version="1.1"
   id="svg2"
   xmlns="http://www.w3.org/2000/svg"
   xmlns:svg="http://www.w3.org/2000/svg">
  <defs
     id="defs2" />
  <g
     fill-rule="evenodd"
     id="g2"
     transform="translate(136.37918,30.166178)">
    <g
       fill="#000000"
       id="g1"
       style="fill:#1e2939;fill-opacity:1"
       transform="translate(-136.37918,-30.166177)">
      <path
         d="m 126,83 v 1 H 0 V 82 H 40 V 42 H 0 V 40 H 40 V 0 h 2 V 40 H 82 V 0 h 2 v 40 h 40 V 0 h 2 z m -2,-1 V 42 H 84 V 82 Z M 82,42 H 42 V 82 H 82 Z M 32,36 a 4,4 0 1 1 0,-8 4,4 0 0 1 0,8 z M 8,12 a 4,4 0 1 1 0,-8 4,4 0 0 1 0,8 z m 96,12 a 4,4 0 1 1 0,-8 4,4 0 0 1 0,8 z m -42,0 a 4,4 0 1 1 0,-8 4,4 0 0 1 0,8 z M 92,12 a 4,4 0 1 1 0,-8 4,4 0 0 1 0,8 z M 20,54 a 4,4 0 1 1 0,-8 4,4 0 0 1 0,8 z m 12,24 a 4,4 0 1 1 0,-8 4,4 0 0 1 0,8 z M 8,54 a 4,4 0 1 1 0,-8 4,4 0 0 1 0,8 z m 24,0 a 4,4 0 1 1 0,-8 4,4 0 0 1 0,8 z M 8,78 a 4,4 0 1 1 0,-8 4,4 0 0 1 0,8 z m 12,0 a 4,4 0 1 1 0,-8 4,4 0 0 1 0,8 z m 54,0 a 4,4 0 1 1 0,-8 4,4 0 0 1 0,8 z M 50,54 a 4,4 0 1 1 0,-8 4,4 0 0 1 0,8 z m 24,0 a 4,4 0 1 1 0,-8 4,4 0 0 1 0,8 z M 50,78 a 4,4 0 1 1 0,-8 4,4 0 0 1 0,8 z m 54,-12 a 4,4 0 1 1 0,-8 4,4 0 0 1 0,8 z m 12,12 a 4,4 0 1 1 0,-8 4,4 0 0 1 0,8 z M 92,54 a 4,4 0 1 1 0,-8 4,4 0 0 1 0,8 z m 24,0 a 4,4 0 1 1 0,-8 4,4 0 0 1 0,8 z M 92,78 a 4,4 0 1 1 0,-8 4,4 0 0 1 0,8 z m 24,-42 a 4,4 0 1 1 0,-8 4,4 0 0 1 0,8 z"
         id="path1"
         style="fill:#1e2939;fill-opacity:1" />
    </g>
  </g>
</svg>
